<svg width="35" height="49" viewBox="0 0 35 49" fill="none" xmlns="http://www.w3.org/2000/svg">
<path id="Vector" d="M17.5 49C12.4323 47.5708 8.24833 44.314 4.94813 39.2294C1.64792 34.1448 -0.00145737 28.5 9.6621e-07 22.295V7.35L17.5 0L35 7.35V22.295C35 28.5017 33.3499 34.1473 30.0497 39.2319C26.7495 44.3164 22.5662 47.5725 17.5 49ZM17.5 43.855C21.0365 42.63 23.9896 40.2102 26.3594 36.5956C28.7292 32.9811 30.1146 28.9492 30.5156 24.5H17.5V5.20625L4.375 10.7188V23.3975C4.375 23.6833 4.41146 24.0508 4.48438 24.5H17.5V43.855Z" fill="#85B6FF"/>
</svg>
