<svg width="45" height="48" viewBox="0 0 45 48" fill="none" xmlns="http://www.w3.org/2000/svg">
<g id="bx:support">
<path id="Vector" d="M22.5 4C12.1613 4 3.75 12.972 3.75 24V32.286C3.75 34.334 5.43187 36 7.5 36H9.375C9.87228 36 10.3492 35.7893 10.7008 35.4142C11.0525 35.0391 11.25 34.5304 11.25 34V23.714C11.25 23.1836 11.0525 22.6749 10.7008 22.2998C10.3492 21.9247 9.87228 21.714 9.375 21.714H7.6725C8.715 13.974 14.9588 8 22.5 8C30.0413 8 36.285 13.974 37.3275 21.714H35.625C35.1277 21.714 34.6508 21.9247 34.2992 22.2998C33.9475 22.6749 33.75 23.1836 33.75 23.714V36C33.75 38.206 32.0681 40 30 40H26.25V38H18.75V44H30C34.1362 44 37.5 40.412 37.5 36C39.5681 36 41.25 34.334 41.25 32.286V24C41.25 12.972 32.8387 4 22.5 4Z" fill="#85B6FF"/>
</g>
</svg>
