<svg width="48" height="44" viewBox="0 0 48 44" fill="none" xmlns="http://www.w3.org/2000/svg">
<g id="ic:outline-integration-instructions">
<path id="Vector" d="M22 25.9783L17.66 22L22 18.0217L19.18 15.4183L12 22L19.18 28.5817L22 25.9783ZM28.82 28.5817L36 22L28.82 15.4183L26 18.0217L30.34 22L26 25.9783L28.82 28.5817Z" fill="#85B6FF"/>
<path id="Vector_2" d="M38 5.50004H29.64C28.8 3.37337 26.6 1.83337 24 1.83337C21.4 1.83337 19.2 3.37337 18.36 5.50004H10C9.72 5.50004 9.46 5.51837 9.2 5.57337C8.56303 5.69588 7.96808 5.95846 7.46638 6.33851C6.96468 6.71856 6.57126 7.20469 6.32 7.75504C6.12 8.17671 6 8.65337 6 9.16671V34.8334C6 35.3284 6.12 35.8234 6.32 36.2634C6.52 36.7034 6.82 37.0884 7.18 37.4367C7.72 37.9317 8.42 38.2984 9.2 38.445C9.46 38.4817 9.72 38.5 10 38.5H38C40.2 38.5 42 36.85 42 34.8334V9.16671C42 7.15004 40.2 5.50004 38 5.50004ZM24 5.04171C24.82 5.04171 25.5 5.66504 25.5 6.41671C25.5 7.16837 24.82 7.79171 24 7.79171C23.18 7.79171 22.5 7.16837 22.5 6.41671C22.5 5.66504 23.18 5.04171 24 5.04171ZM38 27.5V34.8334H10V9.16671H38V27.5Z" fill="#85B6FF"/>
</g>
</svg>
